# xmcd
#
# Track frame offsets:
#	150
#	19049
#	34917
#	48322
#	61316
#	75107
#	91490
#	105262
#	118654
#	137755
#	151339
#	165838
#	180295
#	192354
#	209396
#	223583
#	236896
#
# Disc length: 3419 seconds
#
# Revision: 1
# Processed by: cddbd v1.5.2PL0 Copyright (c) Steve Scherf et al.
# Submitted via: audiograbber 1.83.01
#
DISCID=d40d5911
DTITLE=Joao Bosco and Vinicius - Coracao Apaixonou
DYEAR=2010
DGENRE=Sertanejo
TTITLE0=Chora, Me Liga
TTITLE1=Terremoto
TTITLE2=Sem Esse Coração
TTITLE3=Curtição
TTITLE4=Meu Mundo Gira
TTITLE5=Coração Apaixonou
TTITLE6=Sufoco
TTITLE7=2 Anos
TTITLE8=Deixaria Tudo?
TTITLE9=Aô Buteco
TTITLE10=Canto, Bebo e Choro
TTITLE11=Pedra e Porcelana
TTITLE12=A Cruz e a Espada
TTITLE13=Coração Só Vê Você
TTITLE14=Tema Diferente
TTITLE15=Sexto Sentido
TTITLE16=Falando Sério
EXTD=CD ao vivo
EXTT0=
EXTT1=
EXTT2=
EXTT3=
EXTT4=
EXTT5=
EXTT6=
EXTT7=
EXTT8=
EXTT9=
EXTT10=
EXTT11=
EXTT12=
EXTT13=
EXTT14=
EXTT15=
EXTT16=
PLAYORDER=
